<svg version="1.0" xmlns="http://www.w3.org/2000/svg"
 width="400.000000pt" height="396.000000pt" viewBox="0 0 400.000000 396.000000"
 preserveAspectRatio="xMidYMid meet">

<g transform="translate(0.000000,396.000000) scale(0.100000,-0.100000)"
fill="#000000" stroke="none">
<path d="M1910 3891 c-70 -72 -176 -133 -254 -147 l-39 -7 16 24 c23 32 21 55
-4 80 -19 19 -29 21 -79 16 -66 -7 -177 -46 -221 -78 -42 -30 -56 -14 -39 44
13 50 5 79 -31 97 -32 18 -54 3 -114 -77 -74 -97 -136 -157 -205 -196 -67 -38
-175 -144 -222 -218 -19 -30 -50 -91 -69 -137 l-34 -84 -35 41 c-28 33 -42 41
-67 41 -47 0 -69 -36 -55 -90 5 -22 7 -40 3 -40 -3 1 -40 42 -81 92 -120 146
-145 171 -172 163 -38 -12 -57 -38 -68 -94 -28 -149 2 -309 79 -425 23 -34 37
-65 34 -75 -3 -9 -14 -34 -23 -56 -10 -22 -21 -79 -25 -127 -4 -49 -11 -88
-16 -88 -5 0 -15 13 -23 29 -37 70 -114 102 -151 61 -20 -22 -19 -31 19 -170
22 -79 28 -129 35 -290 10 -224 30 -306 101 -419 23 -35 39 -65 37 -68 -2 -2
-26 1 -52 7 -62 14 -95 -4 -95 -54 0 -39 13 -52 100 -97 84 -43 192 -149 225
-220 33 -71 32 -88 -4 -50 -34 36 -72 40 -101 11 -11 -11 -20 -32 -20 -47 0
-48 55 -147 119 -215 33 -36 61 -69 61 -73 0 -3 -17 -6 -38 -5 -97 5 -132 -14
-132 -69 0 -38 14 -48 101 -72 94 -26 156 -61 302 -171 65 -48 149 -104 187
-123 70 -35 196 -75 237 -75 30 0 29 -6 -7 -47 -23 -25 -29 -41 -24 -56 17
-57 47 -61 154 -22 100 37 220 44 319 20 74 -18 96 -34 37 -27 -63 7 -103 -38
-76 -88 15 -27 47 -40 144 -54 l78 -12 14 -39 c7 -22 21 -44 30 -50 9 -5 30
-22 46 -38 37 -35 60 -34 138 7 90 47 179 75 281 86 143 16 283 86 402 201 28
27 52 49 53 49 1 0 5 -16 9 -36 8 -44 45 -84 79 -84 28 0 66 42 66 74 0 69 55
181 123 254 73 76 151 115 92 44 -44 -52 -23 -112 39 -112 35 0 108 67 188
175 63 83 91 99 96 55 6 -64 22 -98 51 -110 53 -21 91 16 91 88 0 88 31 196
90 317 78 159 100 244 100 397 0 65 2 118 5 118 2 0 25 -10 49 -22 42 -20 46
-20 70 -5 34 23 43 61 22 90 -9 12 -28 37 -41 55 -49 67 -85 205 -84 317 l0
50 17 -35 c14 -28 24 -36 50 -38 49 -5 72 20 72 77 0 46 -20 164 -40 234 -15
52 -5 62 33 33 45 -35 82 -42 112 -22 40 26 33 64 -23 133 -56 67 -133 177
-149 213 -7 14 -25 55 -42 92 -41 93 -95 172 -165 240 l-59 58 13 70 c16 85 8
235 -15 280 -19 38 -56 54 -88 39 -12 -6 -46 -42 -76 -81 -51 -67 -55 -70 -88
-65 -55 9 -138 52 -187 98 -49 44 -55 62 -12 34 33 -22 65 -16 90 18 20 27 20
28 1 63 -22 41 -104 101 -201 146 -35 16 -64 34 -64 39 0 5 18 21 40 35 43 29
55 52 46 89 -11 42 -36 47 -142 29 -112 -19 -191 -14 -249 14 -161 80 -351 75
-558 -13 -17 -7 -18 -6 -3 30 21 50 20 71 -4 95 -34 34 -60 24 -130 -49z
m-1555 -706 c189 -225 440 -420 658 -512 104 -44 275 -97 365 -113 l70 -13 -1
-113 c-2 -127 5 -145 79 -196 68 -47 168 -31 217 34 17 22 18 31 8 61 -14 41
-55 61 -108 51 -26 -5 -33 -3 -33 9 0 23 49 57 81 57 18 0 34 8 44 23 14 20
25 22 135 27 115 5 120 6 149 34 28 27 31 28 31 9 0 -28 -32 -66 -85 -100 -25
-15 -47 -33 -49 -39 -8 -21 14 -106 35 -132 60 -77 172 -82 246 -10 45 43 56
84 52 191 l-4 91 95 22 c420 93 752 309 1055 688 l80 100 12 -50 c28 -120 0
-271 -69 -374 -146 -219 -493 -406 -863 -464 -16 -3 11 -3 60 -1 181 9 391 70
636 186 81 38 149 69 153 69 15 0 4 -64 -18 -108 -83 -165 -331 -264 -725
-291 -79 -6 -146 -13 -148 -15 -13 -13 89 -21 242 -20 165 1 174 2 325 42 85
22 165 44 178 48 32 9 28 -4 -24 -69 -51 -65 -142 -129 -218 -153 -88 -28
-254 -29 -422 -4 -82 12 -153 25 -158 28 -5 3 -6 0 -2 -7 13 -20 78 -48 156
-66 47 -11 135 -19 238 -23 89 -2 162 -9 162 -13 0 -15 -60 -47 -130 -71 -49
-17 -87 -22 -155 -21 -79 0 -106 6 -214 42 -148 51 -185 50 -81 -2 76 -38 224
-76 293 -77 20 0 37 -4 37 -8 0 -12 -64 -39 -133 -57 -117 -30 -204 -14 -345
62 -85 45 -110 50 -77 13 26 -28 169 -99 216 -106 55 -9 48 -20 -17 -27 -89
-9 -206 18 -312 72 -48 25 -51 20 -26 -51 10 -30 29 -56 55 -77 36 -29 39 -36
39 -80 0 -47 -18 -79 -38 -67 -5 3 -23 34 -42 70 -18 36 -37 63 -42 60 -5 -3
-15 -20 -22 -37 l-13 -32 -13 45 c-12 43 -10 123 4 165 3 11 -1 4 -10 -15 -25
-55 -45 -63 -62 -25 -16 36 -29 31 -37 -14 -8 -49 -38 -79 -60 -61 -8 7 -15
20 -15 30 0 10 -6 23 -14 30 -8 6 -16 23 -18 37 -2 15 -8 28 -14 30 -9 3 -8
-7 2 -34 17 -48 17 -81 2 -138 -12 -44 -28 -61 -28 -28 0 9 -7 25 -17 35 -15
17 -17 15 -45 -40 -16 -31 -36 -64 -44 -72 -13 -13 -16 -13 -24 0 -32 49 -23
101 27 144 38 34 63 80 63 121 0 32 -8 31 -78 -4 -85 -43 -163 -63 -253 -64
-89 -1 -127 16 -61 28 73 12 257 114 238 132 -2 2 -44 -16 -93 -40 -107 -54
-180 -77 -247 -77 -71 0 -236 49 -236 70 0 4 30 10 68 13 89 9 200 40 275 79
79 41 53 50 -41 14 -170 -65 -293 -76 -417 -38 -75 23 -135 55 -135 72 0 6 51
10 138 10 75 1 171 7 212 14 89 16 183 50 202 73 11 14 10 15 -7 10 -11 -4
-78 -16 -150 -27 -336 -52 -524 -2 -651 171 -20 28 -34 52 -31 55 3 3 36 -4
74 -14 241 -71 339 -86 507 -79 193 7 229 22 76 31 -409 25 -680 130 -766 298
-21 42 -33 108 -19 108 3 0 60 -27 127 -59 132 -64 379 -151 493 -175 39 -8
111 -17 160 -20 l90 -6 -80 14 c-101 17 -306 86 -410 138 -349 175 -514 415
-465 674 l13 68 21 -26 c12 -14 66 -78 121 -143z m1715 -35 c0 -17 -7 -20 -41
-20 -36 0 -40 -2 -37 -22 2 -19 10 -24 41 -26 30 -3 37 -7 35 -20 -2 -12 -15
-18 -41 -20 -34 -3 -37 -6 -37 -33 0 -27 2 -29 40 -29 33 0 40 -3 40 -20 0
-18 -7 -20 -60 -20 l-60 0 0 115 0 115 60 0 c53 0 60 -2 60 -20z m146 -73 l48
-82 8 50 c14 87 17 95 38 95 24 0 24 9 3 -122 -21 -135 -31 -138 -93 -28 -25
44 -48 80 -52 80 -3 0 -10 -30 -13 -66 -7 -64 -24 -89 -45 -68 -8 8 12 181 25
221 8 25 33 0 81 -80z m-366 70 c34 -26 50 -62 50 -110 0 -40 -5 -53 -29 -78
-24 -23 -38 -29 -74 -29 -38 0 -49 5 -71 30 -46 56 -43 150 7 185 26 18 96 19
117 2z m-205 -121 c15 -58 24 -109 20 -115 -15 -25 -34 -9 -45 40 -9 37 -16
49 -27 45 -8 -4 -26 -9 -40 -12 -16 -4 -22 -11 -19 -21 4 -8 9 -32 12 -54 6
-34 4 -39 -13 -39 -17 0 -24 16 -47 101 -15 55 -25 107 -22 115 10 27 34 14
43 -23 8 -34 13 -38 38 -36 42 3 50 16 38 57 -12 38 -9 46 17 46 13 0 23 -24
45 -104z m795 75 c0 -3 -13 -53 -30 -111 -16 -58 -30 -106 -30 -107 0 -6 -16
-2 -28 6 -11 7 -10 22 8 87 38 141 39 142 60 137 11 -3 20 -8 20 -12z m81 -21
c13 -8 19 -21 19 -47 l0 -37 28 27 c19 19 34 25 50 20 12 -3 22 -7 22 -9 0 -2
-20 -22 -45 -45 l-45 -42 6 -63 c4 -35 4 -64 1 -64 -23 0 -38 18 -43 52 l-7
39 -27 -26 c-21 -20 -34 -25 -50 -20 -21 7 -20 10 25 55 l48 49 -6 60 c-7 65
-6 67 24 51z m-1107 -52 c24 -33 20 -74 -8 -95 -23 -17 -23 -18 -7 -61 14 -38
14 -44 1 -52 -8 -5 -18 -6 -22 -2 -9 9 -89 204 -85 208 1 2 14 7 27 13 43 17
78 13 94 -11z m514 -1313 c2 -11 10 -27 17 -35 36 -41 24 -124 -17 -118 -18 2
-25 -4 -34 -32 -15 -46 -53 -110 -65 -110 -5 0 -12 8 -15 18 -3 9 -16 41 -30
70 -25 55 -31 120 -14 153 15 26 38 24 52 -6 6 -14 15 -25 19 -25 9 0 19 26
19 53 0 47 60 75 68 32z m-224 -275 c0 -148 -2 -160 -33 -255 -28 -86 -34
-124 -43 -268 -7 -100 -15 -164 -21 -158 -16 16 -37 203 -37 336 -1 172 11
350 21 333 5 -7 9 -29 9 -49 0 -54 12 -129 20 -129 4 0 10 35 14 78 6 65 23
180 43 282 4 24 5 24 16 5 7 -13 11 -76 11 -175z m354 38 c12 -79 22 -160 22
-180 0 -98 38 2 41 106 1 39 2 38 10 -14 10 -65 13 -428 5 -485 -16 -99 -29
-155 -37 -155 -5 0 -10 46 -11 103 -2 175 -8 213 -50 346 -28 87 -31 109 -32
231 0 131 6 190 22 190 4 0 18 -64 30 -142z m-120 -75 c5 -10 12 -58 16 -108
4 -49 14 -110 24 -135 14 -37 16 -79 16 -235 -1 -120 -5 -201 -13 -219 -11
-28 -12 -28 -32 -10 -17 16 -22 16 -29 4 -6 -8 -10 -17 -10 -20 -6 -165 -79
-548 -105 -553 -6 -1 -15 50 -22 118 -6 66 -23 177 -36 246 -37 184 -47 273
-42 377 9 191 37 320 68 309 6 -2 17 -41 24 -88 27 -179 36 -173 52 34 12 176
23 235 47 273 19 29 30 30 42 7z"/>
<path d="M1760 2456 c0 -15 24 -28 34 -19 13 14 5 33 -14 33 -11 0 -20 -6 -20
-14z"/>
<path d="M1763 3112 c-18 -11 -32 -57 -26 -83 20 -83 123 -75 123 9 0 26 -17
63 -34 74 -14 10 -48 10 -63 0z"/>
<path d="M1350 2998 c0 -7 5 -20 10 -28 12 -20 33 0 24 23 -7 20 -34 23 -34 5z"/>
</g>
</svg>
